<svg width="18" height="7" viewBox="0 0 18 7" fill="none" xmlns="http://www.w3.org/2000/svg">
<path d="M3.04378 6.58511C4.61284 6.58511 5.54488 5.35808 5.54488 3.28024C5.54488 2.49785 5.39524 1.83944 5.10879 1.33067C4.69408 0.539721 3.98009 0.112183 3.07798 0.112183C1.73551 0.112183 0.786377 1.01429 0.786377 2.2798C0.786377 3.46836 1.64145 4.33198 2.81718 4.33198C3.53972 4.33198 4.12545 3.99423 4.41618 3.4085H4.429C4.429 3.4085 4.4461 3.4085 4.45038 3.4085C4.45893 3.4085 4.48886 3.4085 4.48886 3.4085C4.48886 4.81938 3.95443 5.66163 3.05233 5.66163C2.52218 5.66163 2.11174 5.3709 1.97066 4.90488H0.871885C1.05573 5.91815 1.91508 6.58511 3.04378 6.58511ZM3.08226 3.45553C2.37254 3.45553 1.86805 2.95104 1.86805 2.2456C1.86805 1.55726 2.3982 1.03139 3.08653 1.03139C3.77487 1.03139 4.30502 1.56581 4.30502 2.2627C4.30502 2.95104 3.78769 3.45553 3.08226 3.45553Z" fill="black"/>
<path d="M7.34926 6.52525C7.75542 6.52525 8.03332 6.23453 8.03332 5.84974C8.03332 5.46068 7.75542 5.17423 7.34926 5.17423C6.94737 5.17423 6.6652 5.46068 6.6652 5.84974C6.6652 6.23453 6.94737 6.52525 7.34926 6.52525ZM7.34926 3.31872C7.75542 3.31872 8.03332 3.03227 8.03332 2.64748C8.03332 2.25842 7.75542 1.97197 7.34926 1.97197C6.94737 1.97197 6.6652 2.25842 6.6652 2.64748C6.6652 3.03227 6.94737 3.31872 7.34926 3.31872Z" fill="black"/>
<path d="M12.0352 6.43547H13.0913V5.28539H13.925V4.35336H13.0913V0.266096H11.535C10.4448 1.90784 9.5769 3.28024 9.0211 4.30206V5.28539H12.0352V6.43547ZM10.0429 4.31488C10.7612 3.04937 11.4025 2.0361 11.9925 1.16393H12.0523V4.37901H10.0429V4.31488Z" fill="black"/>
<path d="M16.2766 6.43547H17.3796V0.266096H16.2809L14.6691 1.3948V2.45509L16.2039 1.3777H16.2766V6.43547Z" fill="black"/>
</svg>
