<svg width="244" height="497" viewBox="0 0 244 497" fill="none" xmlns="http://www.w3.org/2000/svg">
<path d="M241.904 127.224H242.768C243.246 127.224 243.632 127.612 243.632 128.091V184.763C243.632 185.242 243.246 185.631 242.768 185.631H241.904V127.224Z" fill="#303030"/>
<path d="M1.72723 197.775L0.863284 197.775C0.38614 197.775 -0.000661339 197.387 -0.000661298 196.908L-0.000658327 162.788C-0.000658285 162.309 0.386144 161.921 0.863288 161.921L1.72724 161.921L1.72723 197.775Z" fill="#303030"/>
<path d="M1.72723 150.355L0.863284 150.355C0.38614 150.355 -0.000661339 149.967 -0.000661298 149.488L-0.000658327 115.369C-0.000658285 114.89 0.386144 114.501 0.863288 114.501L1.72724 114.501L1.72723 150.355Z" fill="#333333"/>
<path d="M1.72711 97.1526L0.863165 97.1526C0.386021 97.1526 -0.000781145 96.7642 -0.000781103 96.2852L-0.000779643 79.5148C-0.000779601 79.0357 0.386022 78.6473 0.863166 78.6473L1.72711 78.6473L1.72711 97.1526Z" fill="#333333"/>
<path fill-rule="evenodd" clip-rule="evenodd" d="M3.55944 25.9732C1.72711 31.6353 1.72711 38.6317 1.72711 52.6243V443.548C1.72711 457.541 1.72711 464.537 3.55944 470.199C7.2627 481.642 16.1985 490.614 27.5959 494.332C33.2352 496.172 40.2034 496.172 54.1398 496.172H189.491C203.428 496.172 210.396 496.172 216.035 494.332C227.433 490.614 236.368 481.642 240.072 470.199C241.904 464.537 241.904 457.541 241.904 443.548V52.6243C241.904 38.6317 241.904 31.6353 240.072 25.9732C236.368 14.5298 227.433 5.55793 216.035 1.83973C210.396 0 203.428 0 189.491 0H54.1398C40.2034 0 33.2352 0 27.5959 1.83973C16.1985 5.55793 7.2627 14.5298 3.55944 25.9732ZM62.7798 14.1681V16.7704L62.8209 16.7691L62.7796 17.0595C62.7796 23.9262 68.3237 29.4927 75.1628 29.4927H168.469C175.308 29.4927 180.852 23.9262 180.852 17.0595L180.811 16.7691L180.852 16.7704V14.1681C180.852 12.4115 182.27 10.9875 184.02 10.9875L191.438 10.9875C203.036 10.9875 208.835 10.9875 213.459 12.7421C220.729 15.5 226.467 21.2613 229.214 28.5598C230.961 33.2032 230.961 39.0254 230.961 50.6697V445.503C230.961 457.147 230.961 462.969 229.214 467.612C226.467 474.911 220.729 480.672 213.459 483.43C208.835 485.185 203.036 485.185 191.438 485.185H52.1933C40.5958 485.185 34.7971 485.185 30.1723 483.43C22.9032 480.672 17.165 474.911 14.4183 467.612C12.6707 462.969 12.6707 457.147 12.6707 445.503V50.6697C12.6707 39.0254 12.6707 33.2032 14.4183 28.5598C17.165 21.2613 22.9032 15.5 30.1723 12.7421C34.7971 10.9875 40.5958 10.9875 52.1934 10.9875L59.612 10.9875C61.3615 10.9875 62.7798 12.4115 62.7798 14.1681Z" fill="#333333"/>
<path fill-rule="evenodd" clip-rule="evenodd" d="M189.722 1.15666H53.9098C40.143 1.15666 33.3961 1.16379 27.9522 2.93978C16.9054 6.54358 8.24463 15.2394 4.65532 26.3307C2.88648 31.7966 2.87937 38.5707 2.87937 52.3931V443.779C2.87937 457.602 2.88648 464.376 4.65532 469.842C8.24463 480.933 16.9054 489.629 27.9522 493.233C33.3961 495.009 40.143 495.016 53.9098 495.016H189.722C203.489 495.016 210.236 495.009 215.68 493.233C226.727 489.629 235.387 480.933 238.977 469.842C240.745 464.376 240.753 457.602 240.753 443.779V52.3931C240.753 38.5707 240.745 31.7966 238.977 26.3307C235.387 15.2394 226.727 6.54358 215.68 2.93978C210.236 1.16379 203.489 1.15666 189.722 1.15666ZM4.10755 26.152C2.30341 31.727 2.30341 38.6157 2.30341 52.3931V443.779C2.30341 457.557 2.30341 464.445 4.10755 470.02C7.75383 481.288 16.5521 490.122 27.7742 493.783C33.3268 495.594 40.1878 495.594 53.9098 495.594H189.722C203.444 495.594 210.305 495.594 215.858 493.783C227.08 490.122 235.878 481.288 239.524 470.02C241.329 464.445 241.329 457.557 241.329 443.779V52.3931C241.329 38.6157 241.329 31.727 239.524 26.152C235.878 14.8846 227.08 6.0508 215.858 2.38979C210.305 0.578369 203.444 0.578369 189.722 0.578369H53.9098C40.1878 0.578369 33.3268 0.578369 27.7742 2.38979C16.5521 6.0508 7.75383 14.8846 4.10755 26.152Z" fill="#303030"/>
<path fill-rule="evenodd" clip-rule="evenodd" d="M6.29984 26.8668C4.60846 32.0933 4.60846 38.5515 4.60846 51.4678V444.704C4.60846 457.621 4.60846 464.079 6.29984 469.305C9.71823 479.869 17.9666 488.15 28.4873 491.583C33.6929 493.281 40.1251 493.281 52.9894 493.281H190.645C203.509 493.281 209.941 493.281 215.147 491.583C225.668 488.15 233.916 479.869 237.334 469.305C239.026 464.079 239.026 457.621 239.026 444.704V51.4678C239.026 38.5515 239.026 32.0933 237.334 26.8668C233.916 16.3036 225.668 8.02188 215.147 4.58969C209.941 2.89148 203.509 2.89148 190.645 2.89148H52.9894C40.1251 2.89148 33.6929 2.89148 28.4873 4.58969C17.9666 8.02188 9.71823 16.3036 6.29984 26.8668ZM62.7806 14.1681V16.7704L62.8218 16.7691L62.7804 17.0596C62.7804 23.9262 68.3246 29.4928 75.1637 29.4928H168.47C175.309 29.4928 180.853 23.9262 180.853 17.0596L180.812 16.7691L180.853 16.7704V14.1681C180.853 12.4115 182.271 10.9875 184.021 10.9875L191.439 10.9875C203.037 10.9875 208.836 10.9875 213.46 12.7421C220.729 15.5 226.468 21.2613 229.214 28.5598C230.962 33.2032 230.962 39.0254 230.962 50.6697V445.503C230.962 457.147 230.962 462.969 229.214 467.612C226.468 474.911 220.729 480.672 213.46 483.43C208.836 485.185 203.037 485.185 191.439 485.185H52.1942C40.5967 485.185 34.798 485.185 30.1732 483.43C22.9041 480.672 17.1659 474.911 14.4191 467.612C12.6716 462.969 12.6716 457.147 12.6716 445.503V50.6697C12.6716 39.0254 12.6716 33.2032 14.4191 28.5598C17.1659 21.2613 22.9041 15.5 30.1732 12.7421C34.798 10.9875 40.5967 10.9875 52.1942 10.9875L59.6128 10.9875C61.3624 10.9875 62.7806 12.4115 62.7806 14.1681Z" fill="#121515"/>
<rect x="190.644" width="3.45577" height="2.89145" fill="#414141"/>
<rect x="239.025" y="49.7329" width="2.87986" height="3.46973" fill="#414141"/>
<rect x="1.72791" y="49.7329" width="2.87982" height="3.46973" fill="#414141"/>
<rect x="1.72791" y="442.969" width="2.87982" height="3.46972" fill="#414141"/>
<rect x="239.025" y="442.969" width="2.87986" height="3.46972" fill="#414141"/>
<rect x="49.5327" y="493.281" width="3.45579" height="2.89144" fill="#414141"/>
<path fill-rule="evenodd" clip-rule="evenodd" d="M146.295 23.1315C148.839 23.1315 150.902 21.0603 150.902 18.5052C150.902 15.9502 148.839 13.8789 146.295 13.8789C143.75 13.8789 141.687 15.9502 141.687 18.5052C141.687 21.0603 143.75 23.1315 146.295 23.1315Z" fill="#262C2D"/>
<path fill-rule="evenodd" clip-rule="evenodd" d="M146.294 21.3967C147.885 21.3967 149.174 20.1021 149.174 18.5052C149.174 16.9083 147.885 15.6138 146.294 15.6138C144.704 15.6138 143.414 16.9083 143.414 18.5052C143.414 20.1021 144.704 21.3967 146.294 21.3967Z" fill="#121515"/>
<path opacity="0.4" fill-rule="evenodd" clip-rule="evenodd" d="M146.295 17.9275C146.613 17.9275 146.871 17.6685 146.871 17.3489C146.871 17.0294 146.613 16.7704 146.295 16.7704C145.977 16.7704 145.719 17.0294 145.719 17.3489C145.719 17.6685 145.977 17.9275 146.295 17.9275Z" fill="#636F73"/>
<path fill-rule="evenodd" clip-rule="evenodd" d="M107.706 18.5053C107.706 17.5471 108.482 16.7704 109.44 16.7704H134.193C135.151 16.7704 135.928 17.5471 135.928 18.5053C135.928 19.4634 135.151 20.2401 134.193 20.2401H109.44C108.482 20.2401 107.706 19.4634 107.706 18.5053Z" fill="#262C2D"/>
</svg>
