<svg width="128" height="23" viewBox="0 0 128 23" fill="none" xmlns="http://www.w3.org/2000/svg">
<path d="M14.52 0.90918V16.1192L4.77 0.90918H0.869995V21.9092H4.77V6.81918L14.52 21.9092H18.42V0.90918H14.52Z" fill="#101828"/>
<path d="M20.1773 4.83918H24.1973V0.90918H20.1773V4.83918ZM20.2373 21.9092V6.90918H24.1373V21.9092H20.2373Z" fill="#101828"/>
<path d="M40.9174 14.4092C40.9174 9.21918 37.2274 6.75918 33.3274 6.72918C29.3974 6.69918 25.7674 9.21918 25.7674 14.4092C25.7674 19.5992 29.3974 22.1192 33.3274 22.0892C36.8974 22.0592 39.3574 20.4092 40.4974 17.6792L37.4674 16.4192C36.5374 18.2792 35.0674 18.9392 33.3274 18.9692C31.8274 18.9992 30.1174 18.2792 29.7574 15.6092H40.8274C40.8874 15.2192 40.9174 14.8292 40.9174 14.4092ZM33.3274 9.81918C34.8274 9.84918 36.3574 10.6592 36.8374 12.8192H29.8174C30.3274 10.6292 31.8574 9.78918 33.3274 9.81918Z" fill="#101828"/>
<path d="M49.9305 9.69918V6.72918H47.4705V2.70918L43.5705 3.90918V6.72918H41.1105V9.69918H43.5705V17.4692C43.5705 20.4092 43.8105 21.9092 48.3705 21.9092H49.4205V18.4892H48.3705C47.6505 18.4892 47.4705 18.3692 47.4705 17.4692V9.69918H49.9305Z" fill="#101828"/>
<path d="M55.7257 18.6392L64.0057 10.1792V6.90918H51.5857V10.1792H59.6257L51.3457 18.6392V21.9092H64.0957V18.6392H55.7257Z" fill="#101828"/>
<path d="M65.494 17.6792L69.424 17.0792C69.694 18.5792 71.464 19.1492 72.544 19.1492C73.654 19.1492 75.574 18.9092 75.574 17.1092C75.574 13.5992 65.944 17.9792 65.944 11.2592C65.944 6.93918 70.954 6.69918 72.544 6.69918C74.044 6.69918 78.394 6.93918 79.294 10.4192L75.574 11.1992C75.244 9.60918 73.564 9.30918 72.664 9.30918C71.764 9.30918 69.844 9.51918 69.844 11.2592C69.844 14.7392 79.474 10.2992 79.474 17.1092C79.474 21.6992 74.194 22.0892 72.544 22.0892C71.044 22.0892 66.274 21.6992 65.494 17.6792Z" fill="#101828"/>
<path d="M84.5405 14.4092C84.5405 18.0692 86.4905 19.1792 88.5305 19.1492C90.3605 19.1192 91.6205 18.3692 92.3705 16.2692L95.5805 17.8292C94.4105 20.8892 91.5605 22.0592 88.5305 22.0892C84.6005 22.1192 80.6405 19.5992 80.6405 14.4092C80.6405 9.21918 84.6005 6.69918 88.5305 6.72918C91.5605 6.75918 94.4105 7.92918 95.5805 10.9892L92.3705 12.5492C91.6205 10.4492 90.3605 9.69918 88.5305 9.66918C86.4905 9.63918 84.5405 10.7492 84.5405 14.4092Z" fill="#101828"/>
<path d="M106.05 6.66918C104.04 6.66918 102.21 7.71918 101.04 9.96918V0.90918H97.1402V21.9092H101.04V16.5992C101.04 9.72918 103.89 9.15918 104.94 9.15918C106.62 9.15918 106.86 10.8992 106.86 13.4492V21.9092H110.76V13.4492C110.76 10.2692 110.25 6.66918 106.05 6.66918Z" fill="#101828"/>
<path d="M127.226 14.4092C127.226 9.21918 123.536 6.75918 119.636 6.72918C115.706 6.69918 112.076 9.21918 112.076 14.4092C112.076 19.5992 115.706 22.1192 119.636 22.0892C123.206 22.0592 125.666 20.4092 126.806 17.6792L123.776 16.4192C122.846 18.2792 121.376 18.9392 119.636 18.9692C118.136 18.9992 116.426 18.2792 116.066 15.6092H127.136C127.196 15.2192 127.226 14.8292 127.226 14.4092ZM119.636 9.81918C121.136 9.84918 122.666 10.6592 123.146 12.8192H116.126C116.636 10.6292 118.166 9.78918 119.636 9.81918Z" fill="#101828"/>
</svg>
