<svg width="112" height="29" viewBox="0 0 112 29" fill="none" xmlns="http://www.w3.org/2000/svg">
<path d="M8.44998 22.2401C13.16 22.2401 16.34 19.7801 16.34 15.8501C16.34 7.54006 5.29998 11.0801 5.29998 6.70006C5.29998 5.47006 6.40998 4.63006 8.17998 4.63006C10.19 4.63006 11.45 5.71006 11.6 7.36006H15.89C15.77 3.37006 12.71 0.76006 8.17998 0.76006C3.91998 0.76006 0.919977 3.22006 0.919977 6.70006C0.919977 14.9501 11.81 11.8001 11.81 15.9101C11.81 17.5001 10.46 18.3401 8.44998 18.3401C6.22998 18.3401 4.81998 16.9901 4.63998 14.8601H0.319977C0.499977 19.3301 3.67998 22.2401 8.44998 22.2401Z" fill="#101828"/>
<path d="M17.3602 28.1201H21.5302V20.6501C22.3402 21.6701 23.8102 22.2401 25.5202 22.2401C29.8702 22.2401 32.8102 19.1501 32.8102 14.4401C32.8102 9.73006 30.1102 6.64006 25.8802 6.64006C23.9302 6.64006 22.4302 7.36006 21.5302 8.53006V6.88006H17.3602V28.1201ZM25.0102 18.6401C22.7602 18.6401 21.2902 16.9601 21.2902 14.4401C21.2902 11.8901 22.7602 10.2101 25.0102 10.2101C27.2002 10.2101 28.7002 11.8901 28.7002 14.4401C28.7002 16.9601 27.2002 18.6401 25.0102 18.6401Z" fill="#101828"/>
<path d="M33.8192 22.0001H37.9892V13.7201C37.9892 11.7701 39.2792 10.3601 41.1092 10.3601C42.8492 10.3601 44.0492 11.6801 44.0492 13.5101V22.0001H48.2192V12.5801C48.2192 9.10006 45.9992 6.64006 42.6092 6.64006C40.5092 6.64006 38.8592 7.51006 37.9892 8.98006V0.310059H33.8192V22.0001Z" fill="#101828"/>
<path d="M59.8845 16.8701C59.5545 18.1601 58.4445 18.8201 56.7645 18.8201C54.6645 18.8201 53.3145 17.5001 53.0145 15.3701H63.8745C63.9045 15.0401 63.9345 14.5901 63.9345 14.0201C63.9345 10.5701 61.8045 6.64006 56.4645 6.64006C51.3345 6.64006 48.9945 10.5701 48.9945 14.4101C48.9945 18.2201 51.6345 22.2401 56.7645 22.2401C60.4845 22.2401 63.3645 20.1401 63.9645 16.8701H59.8845ZM56.4645 9.70006C58.4745 9.70006 59.6445 11.0501 59.7645 12.7301H53.0745C53.4345 10.6301 54.5745 9.70006 56.4645 9.70006Z" fill="#101828"/>
<path d="M74.8709 10.3601V6.88006H72.7194C70.8894 6.88006 69.7494 7.51006 68.9394 9.40006V6.88006H64.7393V22.0001H68.9394V14.6501C68.9394 12.0701 69.8694 10.3601 71.9394 10.3601H74.8709Z" fill="#101828"/>
<path d="M89.2709 6.88006H85.0709V15.1601C85.0709 17.0801 83.7809 18.5201 81.9509 18.5201C80.2409 18.5201 79.0409 17.2001 79.0409 15.3701V6.88006H74.8709V16.3001C74.8709 19.7501 77.0909 22.2401 80.4809 22.2401C82.5509 22.2401 84.2309 21.3401 85.0709 19.9001V22.0001H89.2709V6.88006Z" fill="#101828"/>
<path d="M91.0711 22.0001H95.2411V0.310059H91.0711V22.0001Z" fill="#101828"/>
<path d="M107.146 16.8701C106.816 18.1601 105.706 18.8201 104.026 18.8201C101.926 18.8201 100.576 17.5001 100.276 15.3701H111.136C111.166 15.0401 111.196 14.5901 111.196 14.0201C111.196 10.5701 109.066 6.64006 103.726 6.64006C98.5962 6.64006 96.2562 10.5701 96.2562 14.4101C96.2562 18.2201 98.8962 22.2401 104.026 22.2401C107.746 22.2401 110.626 20.1401 111.226 16.8701H107.146ZM103.726 9.70006C105.736 9.70006 106.906 11.0501 107.026 12.7301H100.336C100.696 10.6301 101.836 9.70006 103.726 9.70006Z" fill="#101828"/>
</svg>
