<svg width="39" height="44" viewBox="0 0 39 44" fill="none" xmlns="http://www.w3.org/2000/svg">
<path fill-rule="evenodd" clip-rule="evenodd" d="M19.9655 1.44802C19.4605 1.34415 18.9396 1.34415 18.4345 1.44802C17.8507 1.56809 17.3289 1.86035 16.9141 2.0927L16.801 2.15587L2.74154 9.96669C2.70267 9.98829 2.66262 10.0103 2.62158 10.033C2.18245 10.2748 1.6303 10.5789 1.20628 11.0391C0.839687 11.4369 0.562258 11.9084 0.392548 12.422C0.196252 13.0161 0.198549 13.6465 0.200375 14.1478C0.200546 14.1947 0.200713 14.2404 0.200713 14.2849V29.7068C0.200713 29.7513 0.200546 29.797 0.200375 29.8438C0.198549 30.3452 0.196252 30.9755 0.392548 31.5697C0.562259 32.0833 0.839689 32.5548 1.20628 32.9526C1.6303 33.4127 2.18245 33.7168 2.62158 33.9587C2.66262 33.9813 2.70268 34.0034 2.74154 34.025L16.801 41.8358L16.9141 41.899C17.3289 42.1313 17.8507 42.4236 18.4345 42.5436C18.9396 42.6475 19.4605 42.6475 19.9655 42.5436C20.5493 42.4236 21.0711 42.1313 21.4859 41.899L21.599 41.8358L35.6585 34.025C35.6757 34.0154 35.6931 34.0058 35.7107 33.9961C35.733 33.9838 35.7555 33.9713 35.7784 33.9587C36.2176 33.7169 36.7697 33.4127 37.1937 32.9526C37.5603 32.5548 37.8378 32.0833 38.0075 31.5697C38.2038 30.9755 38.2015 30.3452 38.1996 29.8438C38.1995 29.797 38.1993 29.7513 38.1993 29.7068V14.2849C38.1993 14.2404 38.1995 14.1947 38.1996 14.1478C38.2015 13.6465 38.2038 13.0161 38.0075 12.422C37.8378 11.9084 37.5603 11.4369 37.1937 11.0391C36.7697 10.5789 36.2176 10.2748 35.7784 10.0329L35.7769 10.0321C35.7364 10.0098 35.6969 9.98801 35.6585 9.96669L21.599 2.15586L21.4859 2.09269C21.0711 1.86035 20.5493 1.56809 19.9655 1.44802ZM18.6464 5.47754C18.9343 5.31759 19.0813 5.23676 19.1909 5.18388L19.2 5.17953L19.2091 5.18388C19.3187 5.23676 19.4657 5.31758 19.7536 5.47754L32.3871 12.4961L19.2 19.8223L6.01286 12.4962L18.6464 5.47754ZM4.00057 15.7251L17.3 23.1137L17.3001 37.7662L4.58692 30.7033C4.28302 30.5345 4.12786 30.4474 4.019 30.378L4.00981 30.3721L4.00912 30.3612C4.00136 30.2324 4.00057 30.0545 4.00057 29.7068V15.7251Z" fill="#101828"/>
</svg>
