<svg width="145" height="23" viewBox="0 0 145 23" fill="none" xmlns="http://www.w3.org/2000/svg">
<path d="M11.14 22.2401C13.84 22.2401 16.06 20.8601 16.75 18.7901V22.0001H20.74V13.9001C20.74 12.0701 19.3 10.5101 17.35 10.5101H11.65V13.9001H15.7C16.21 13.9001 16.54 14.2301 16.54 14.7401C16.54 16.6901 13.96 18.5801 11.35 18.5801C7.86999 18.5801 5.10999 15.8501 5.10999 11.5001C5.10999 7.15006 7.86999 4.63006 11.44 4.63006C14.14 4.63006 16 6.10006 16.33 8.35006H20.8C20.53 3.85006 16.75 0.76006 11.47 0.76006C5.91999 0.76006 0.819988 4.33006 0.819988 11.5001C0.819988 18.6701 5.76999 22.2401 11.14 22.2401Z" fill="#101828"/>
<path d="M22.4528 22.0001H26.6228V0.310059H22.4528V22.0001Z" fill="#101828"/>
<path d="M35.6179 22.2401C40.2679 22.2401 43.5979 18.9401 43.5979 14.4401C43.5979 9.94006 40.2679 6.64006 35.6179 6.64006C30.9679 6.64006 27.6379 9.94006 27.6379 14.4401C27.6379 18.9401 30.9679 22.2401 35.6179 22.2401ZM35.6179 18.6401C33.3679 18.6401 31.8379 16.9301 31.8379 14.4401C31.8379 11.9201 33.3679 10.2101 35.6179 10.2101C37.8679 10.2101 39.3979 11.9201 39.3979 14.4401C39.3979 16.9301 37.8679 18.6401 35.6179 18.6401Z" fill="#101828"/>
<path d="M52.9288 22.2401C57.3988 22.2401 60.0688 19.1501 60.0688 14.4401C60.0688 9.73006 57.3988 6.64006 52.9888 6.64006C51.0988 6.64006 49.6288 7.36006 48.7888 8.47006V0.310059H44.6188V22.0001H48.7888V20.3501C49.6288 21.5201 51.1888 22.2401 52.9288 22.2401ZM52.2688 18.6401C50.0188 18.6401 48.5488 16.9601 48.5488 14.4401C48.5488 11.8901 50.0188 10.2101 52.2688 10.2101C54.4588 10.2101 55.9588 11.8901 55.9588 14.4401C55.9588 16.9601 54.4588 18.6401 52.2688 18.6401Z" fill="#101828"/>
<path d="M67.0492 6.64006C62.9092 6.64006 60.4492 9.07006 60.2692 12.1001H63.9892C64.0492 10.8401 64.9792 9.70006 66.8092 9.70006C68.5192 9.70006 69.5092 10.5701 69.5092 11.8301C69.5092 12.4601 69.1192 12.9401 68.3692 12.9401H65.8192C62.5192 12.9401 60.2992 14.7401 60.2992 17.7101C60.2992 20.2901 62.3092 22.2401 65.2492 22.2401C67.3192 22.2401 68.9992 21.3101 69.5092 19.9001V22.0001H73.6492V12.2801C73.6492 8.86006 70.8592 6.64006 67.0492 6.64006ZM66.2992 19.2101C65.1292 19.2101 64.2892 18.5201 64.2892 17.5301C64.2892 16.3601 65.1892 15.5801 66.4492 15.5801H69.5092V15.7901C69.5092 17.7101 68.3392 19.2101 66.2992 19.2101Z" fill="#101828"/>
<path d="M75.2516 22.0001H79.4216V0.310059H75.2516V22.0001Z" fill="#101828"/>
<path d="M81.6367 22.0001H90.2167C94.6567 22.0001 97.7167 19.7201 97.7167 15.7301C97.7167 12.9701 96.0967 11.2901 94.1767 10.5401C95.4067 9.88006 96.6367 8.38006 96.6367 6.40006C96.6367 2.89006 93.7867 1.00006 89.9767 1.00006H81.6367V22.0001ZM86.0767 9.01006V4.57006H89.5567C91.5667 4.57006 92.4667 5.38006 92.4667 6.79006C92.4667 8.20006 91.5667 9.01006 89.6467 9.01006H86.0767ZM86.0767 18.1001V12.8201H89.8267C92.3167 12.8201 93.4267 13.7801 93.4267 15.4901C93.4267 17.2001 92.3167 18.1001 89.8267 18.1001H86.0767Z" fill="#101828"/>
<path d="M104.971 6.64006C100.831 6.64006 98.3711 9.07006 98.1911 12.1001H101.911C101.971 10.8401 102.901 9.70006 104.731 9.70006C106.441 9.70006 107.431 10.5701 107.431 11.8301C107.431 12.4601 107.041 12.9401 106.291 12.9401H103.741C100.441 12.9401 98.2211 14.7401 98.2211 17.7101C98.2211 20.2901 100.231 22.2401 103.171 22.2401C105.241 22.2401 106.921 21.3101 107.431 19.9001V22.0001H111.571V12.2801C111.571 8.86006 108.781 6.64006 104.971 6.64006ZM104.221 19.2101C103.051 19.2101 102.211 18.5201 102.211 17.5301C102.211 16.3601 103.111 15.5801 104.371 15.5801H107.431V15.7901C107.431 17.7101 106.261 19.2101 104.221 19.2101Z" fill="#101828"/>
<path d="M112.934 22.0001H117.134V13.7201C117.134 11.7701 118.424 10.3601 120.254 10.3601C121.994 10.3601 123.164 11.6801 123.164 13.5101V22.0001H127.364V12.5801C127.364 9.10006 125.144 6.64006 121.724 6.64006C119.654 6.64006 117.974 7.51006 117.134 8.98006V6.88006H112.934V22.0001Z" fill="#101828"/>
<path d="M139.334 22.0001H144.374L137.864 12.8201L143.894 6.88006H138.614L133.364 12.0401V0.310059H129.164V22.0001H133.364V17.2601L135.044 15.6101L139.334 22.0001Z" fill="#101828"/>
</svg>
