<svg width="106" height="24" viewBox="0 0 106 24" fill="none" xmlns="http://www.w3.org/2000/svg">
<path d="M7.00671 18.5667C5.74671 18.5667 4.5256 18.3878 3.34338 18.0301C2.17671 17.6723 1.25116 17.1978 0.566711 16.6067L1.61671 14.2501C2.2856 14.779 3.10227 15.2145 4.06671 15.5567C5.04671 15.8834 6.02671 16.0467 7.00671 16.0467C8.22004 16.0467 9.12226 15.8523 9.71337 15.4634C10.32 15.0745 10.6234 14.5612 10.6234 13.9234C10.6234 13.4567 10.4523 13.0756 10.11 12.7801C9.78337 12.469 9.36337 12.2278 8.85004 12.0567C8.33671 11.8856 7.63671 11.6912 6.75004 11.4734C5.5056 11.1778 4.49449 10.8823 3.71671 10.5867C2.95449 10.2912 2.29338 9.83229 1.73338 9.21007C1.18893 8.57229 0.916711 7.71673 0.916711 6.6434C0.916711 5.74118 1.15782 4.92451 1.64004 4.1934C2.13782 3.44673 2.87671 2.85562 3.85671 2.42007C4.85227 1.98451 6.0656 1.76673 7.49671 1.76673C8.49226 1.76673 9.47226 1.89118 10.4367 2.14007C11.4012 2.38896 12.2334 2.74673 12.9334 3.2134L11.9767 5.57007C11.2612 5.15007 10.5145 4.83118 9.73671 4.6134C8.95893 4.39562 8.20449 4.28673 7.47337 4.28673C6.2756 4.28673 5.38115 4.48896 4.79004 4.8934C4.21449 5.29785 3.92671 5.83451 3.92671 6.5034C3.92671 6.97007 4.09004 7.35118 4.41671 7.64673C4.75893 7.94229 5.18671 8.17562 5.70004 8.34674C6.21338 8.51785 6.91338 8.71229 7.80004 8.93007C9.01337 9.21007 10.0089 9.50562 10.7867 9.81674C11.5645 10.1123 12.2256 10.5712 12.77 11.1934C13.33 11.8156 13.61 12.6556 13.61 13.7134C13.61 14.6156 13.3612 15.4323 12.8634 16.1634C12.3812 16.8945 11.6423 17.4778 10.6467 17.9134C9.65115 18.349 8.43782 18.5667 7.00671 18.5667Z" fill="#101828"/>
<path d="M16.3379 5.8734H19.2545V18.3334H16.3379V5.8734ZM17.8078 3.82007C17.279 3.82007 16.8356 3.65673 16.4779 3.33007C16.1201 2.98785 15.9412 2.56785 15.9412 2.07007C15.9412 1.57229 16.1201 1.16007 16.4779 0.833401C16.8356 0.491179 17.279 0.320068 17.8078 0.320068C18.3367 0.320068 18.7801 0.483401 19.1378 0.810068C19.4956 1.12118 19.6745 1.51785 19.6745 2.00007C19.6745 2.5134 19.4956 2.94896 19.1378 3.30673C18.7956 3.64896 18.3523 3.82007 17.8078 3.82007Z" fill="#101828"/>
<path d="M26.9326 18.4967C25.9215 18.4967 24.9338 18.3645 23.9693 18.1001C23.0049 17.8356 22.2349 17.5012 21.6593 17.0967L22.7793 14.8801C23.3393 15.2534 24.0082 15.5567 24.786 15.7901C25.5793 16.0078 26.3571 16.1167 27.1193 16.1167C28.8615 16.1167 29.7326 15.6578 29.7326 14.7401C29.7326 14.3045 29.5071 14.0012 29.056 13.8301C28.6204 13.659 27.9126 13.4956 26.9326 13.3401C25.906 13.1845 25.066 13.0056 24.4126 12.8034C23.7749 12.6012 23.2149 12.2512 22.7326 11.7534C22.266 11.2401 22.0326 10.5323 22.0326 9.63007C22.0326 8.44785 22.5226 7.50673 23.5026 6.80674C24.4982 6.09118 25.836 5.7334 27.516 5.7334C28.3715 5.7334 29.2271 5.83451 30.0826 6.03674C30.9382 6.2234 31.6382 6.48007 32.1826 6.80674L31.0626 9.0234C30.0049 8.40118 28.8149 8.09007 27.4926 8.09007C26.6371 8.09007 25.9837 8.22229 25.5326 8.48673C25.0971 8.73562 24.8793 9.07007 24.8793 9.49007C24.8793 9.95674 25.1126 10.2912 25.5793 10.4934C26.0615 10.6801 26.8004 10.859 27.796 11.0301C28.7915 11.1856 29.6082 11.3645 30.246 11.5667C30.8837 11.769 31.4282 12.1112 31.8793 12.5934C32.346 13.0756 32.5793 13.7601 32.5793 14.6467C32.5793 15.8134 32.0737 16.7467 31.0626 17.4467C30.0515 18.1467 28.6749 18.4967 26.9326 18.4967Z" fill="#101828"/>
<path d="M46.5299 5.8734L40.6966 19.3367C40.1521 20.6901 39.491 21.639 38.7132 22.1834C37.9355 22.7434 36.9943 23.0234 35.8899 23.0234C35.2677 23.0234 34.6532 22.9223 34.0466 22.7201C33.4399 22.5178 32.9421 22.2378 32.5532 21.8801L33.7199 19.7334C33.9999 19.9978 34.3266 20.2078 34.6999 20.3634C35.0888 20.519 35.4777 20.5967 35.8666 20.5967C36.3799 20.5967 36.7999 20.4645 37.1266 20.2001C37.4688 19.9356 37.7799 19.4923 38.0599 18.8701L38.2699 18.3801L32.8332 5.8734H35.8666L39.7866 15.0901L43.7299 5.8734H46.5299Z" fill="#101828"/>
<path d="M55.2595 5.7334C56.4728 5.7334 57.5539 5.99785 58.5028 6.52673C59.4672 7.05562 60.2217 7.80229 60.7661 8.76674C61.3106 9.73118 61.5828 10.8434 61.5828 12.1034C61.5828 13.3634 61.3106 14.4834 60.7661 15.4634C60.2217 16.4278 59.4672 17.1745 58.5028 17.7034C57.5539 18.2323 56.4728 18.4967 55.2595 18.4967C53.5795 18.4967 52.2495 17.9367 51.2695 16.8167V22.8601H48.3528V5.8734H51.1295V7.50673C51.6117 6.91562 52.2028 6.47229 52.9028 6.17673C53.6184 5.88118 54.4039 5.7334 55.2595 5.7334ZM54.9328 16.0001C56.0061 16.0001 56.885 15.6423 57.5695 14.9267C58.2695 14.2112 58.6195 13.2701 58.6195 12.1034C58.6195 10.9367 58.2695 9.99562 57.5695 9.28007C56.885 8.56451 56.0061 8.20674 54.9328 8.20674C54.2328 8.20674 53.6028 8.37007 53.0428 8.69674C52.4828 9.00785 52.0395 9.45896 51.7128 10.0501C51.3861 10.6412 51.2228 11.3256 51.2228 12.1034C51.2228 12.8812 51.3861 13.5656 51.7128 14.1567C52.0395 14.7478 52.4828 15.2067 53.0428 15.5334C53.6028 15.8445 54.2328 16.0001 54.9328 16.0001Z" fill="#101828"/>
<path d="M71.4189 5.7334C72.99 5.7334 74.25 6.19229 75.1989 7.11007C76.1478 8.02785 76.6222 9.38896 76.6222 11.1934V18.3334H73.7056V11.5667C73.7056 10.4778 73.4489 9.66118 72.9356 9.11674C72.4222 8.55674 71.6911 8.27673 70.7422 8.27673C69.6689 8.27673 68.8211 8.6034 68.1989 9.25673C67.5767 9.89451 67.2656 10.8201 67.2656 12.0334V18.3334H64.3489V1.02007H67.2656V7.32007C67.7478 6.80674 68.3389 6.41785 69.0389 6.1534C69.7544 5.8734 70.5478 5.7334 71.4189 5.7334Z" fill="#101828"/>
<path d="M92.3855 5.8734V18.3334H89.6089V16.7467C89.1422 17.3067 88.5589 17.7423 87.8589 18.0534C87.1589 18.349 86.4044 18.4967 85.5955 18.4967C83.9311 18.4967 82.6166 18.0378 81.6522 17.1201C80.7033 16.1867 80.2289 14.8101 80.2289 12.9901V5.8734H83.1455V12.5934C83.1455 13.7134 83.3944 14.5534 83.8922 15.1134C84.4055 15.6578 85.1289 15.9301 86.0622 15.9301C87.1044 15.9301 87.9289 15.6112 88.5355 14.9734C89.1577 14.3201 89.4689 13.3867 89.4689 12.1734V5.8734H92.3855Z" fill="#101828"/>
<path d="M100.054 18.4967C99.0432 18.4967 98.0555 18.3645 97.091 18.1001C96.1266 17.8356 95.3566 17.5012 94.781 17.0967L95.901 14.8801C96.461 15.2534 97.1299 15.5567 97.9077 15.7901C98.701 16.0078 99.4788 16.1167 100.241 16.1167C101.983 16.1167 102.854 15.6578 102.854 14.7401C102.854 14.3045 102.629 14.0012 102.178 13.8301C101.742 13.659 101.034 13.4956 100.054 13.3401C99.0277 13.1845 98.1877 13.0056 97.5343 12.8034C96.8966 12.6012 96.3366 12.2512 95.8543 11.7534C95.3877 11.2401 95.1544 10.5323 95.1544 9.63007C95.1544 8.44785 95.6443 7.50673 96.6244 6.80674C97.6199 6.09118 98.9577 5.7334 100.638 5.7334C101.493 5.7334 102.349 5.83451 103.204 6.03674C104.06 6.2234 104.76 6.48007 105.304 6.80674L104.184 9.0234C103.127 8.40118 101.937 8.09007 100.614 8.09007C99.7588 8.09007 99.1055 8.22229 98.6544 8.48673C98.2188 8.73562 98.001 9.07007 98.001 9.49007C98.001 9.95674 98.2343 10.2912 98.701 10.4934C99.1832 10.6801 99.9221 10.859 100.918 11.0301C101.913 11.1856 102.73 11.3645 103.368 11.5667C104.005 11.769 104.55 12.1112 105.001 12.5934C105.468 13.0756 105.701 13.7601 105.701 14.6467C105.701 15.8134 105.195 16.7467 104.184 17.4467C103.173 18.1467 101.797 18.4967 100.054 18.4967Z" fill="#101828"/>
</svg>
